<svg width="55" height="56" viewBox="0 0 55 56" fill="none" xmlns="http://www.w3.org/2000/svg">
<path d="M2.79996 47.2594L25.1023 24.957L30.2944 30.1491L7.99202 52.4514C7.76768 52.3612 7.51173 52.2529 7.2395 52.128C6.30197 51.698 5.32174 51.1384 4.71735 50.5341C4.11296 49.9297 3.55342 48.9494 3.12336 48.0119C2.99848 47.7397 2.89018 47.4837 2.79996 47.2594Z" fill="white" stroke="#323338" stroke-width="3"/>
<circle cx="34.6643" cy="19.5" r="18" fill="white" stroke="#323338" stroke-width="3"/>
<path d="M46.6643 23.5C47.8643 13.5 43.1643 10 38.1643 8C36.6643 8 35.7984 9.38049 37.6643 10.5C42.6643 13.5 44.6643 15 44.1643 23.5C44.1643 23.5 44.6643 25 45.6643 24.5C46.6643 24 46.6643 23.5 46.6643 23.5Z" stroke="#323338"/>
</svg>
